<svg width="193" height="193" viewBox="0 0 193 193" fill="none" xmlns="http://www.w3.org/2000/svg">
<circle cx="47" cy="99" r="46" fill="#4096FF"/>
<circle cx="46.2459" cy="98.7487" r="34.1858" fill="white"/>
<circle cx="46.2459" cy="98.7487" r="33.4317" stroke="white" stroke-opacity="0.14" stroke-width="1.5082"/>
<ellipse cx="46.2459" cy="98.9999" rx="31.6721" ry="31.4208" fill="#4096FF"/>
<path d="M73.8962 98.9999C73.8962 114.102 61.547 126.399 46.2459 126.399C30.9448 126.399 18.5956 114.102 18.5956 98.9999C18.5956 83.8981 30.9448 71.601 46.2459 71.601C61.547 71.601 73.8962 83.8981 73.8962 98.9999Z" stroke="white" stroke-opacity="0.2" stroke-width="8.04372"/>
<ellipse cx="45.9945" cy="99.2514" rx="18.8525" ry="19.1038" fill="#4096FF"/>
<path d="M64.0929 99.2514C64.0929 109.395 55.9806 117.601 45.9945 117.601C36.0085 117.601 27.8962 109.395 27.8962 99.2514C27.8962 89.1077 36.0085 80.9017 45.9945 80.9017C55.9806 80.9017 64.0929 89.1077 64.0929 99.2514Z" stroke="white" stroke-opacity="0.2" stroke-width="1.5082"/>
<circle cx="45.7432" cy="99.2513" r="8.04372" fill="white"/>
<circle cx="45.7432" cy="99.2513" r="7.28962" stroke="white" stroke-opacity="0.2" stroke-width="1.5082"/>
<path d="M124.588 89.593H116.746C116.641 88.7879 116.427 88.0612 116.103 87.4129C115.779 86.7647 115.35 86.2105 114.817 85.7504C114.283 85.2904 113.651 84.9401 112.919 84.6996C112.197 84.4486 111.397 84.3232 110.519 84.3232C108.961 84.3232 107.618 84.7048 106.488 85.4681C105.37 86.2314 104.507 87.3345 103.9 88.7774C103.304 90.2204 103.006 91.9665 103.006 94.0159C103.006 96.149 103.31 97.9369 103.916 99.3799C104.533 100.812 105.396 101.895 106.504 102.626C107.623 103.348 108.946 103.709 110.472 103.709C111.329 103.709 112.108 103.599 112.809 103.379C113.52 103.16 114.142 102.841 114.675 102.423C115.219 101.994 115.664 101.476 116.009 100.87C116.364 100.253 116.61 99.5576 116.746 98.7839L124.588 98.8309C124.452 100.253 124.039 101.654 123.349 103.034C122.669 104.414 121.733 105.674 120.541 106.814C119.349 107.943 117.896 108.843 116.181 109.512C114.477 110.181 112.521 110.516 110.315 110.516C107.408 110.516 104.805 109.878 102.505 108.602C100.215 107.316 98.4058 105.444 97.0779 102.987C95.75 100.53 95.086 97.5396 95.086 94.0159C95.086 90.4818 95.7604 87.4861 97.1093 85.029C98.4581 82.5718 100.283 80.7054 102.583 79.4297C104.883 78.1541 107.461 77.5163 110.315 77.5163C112.26 77.5163 114.059 77.7881 115.711 78.3319C117.363 78.8651 118.816 79.6493 120.071 80.6845C121.325 81.7092 122.345 82.9691 123.129 84.4643C123.913 85.9595 124.4 87.6691 124.588 89.593ZM136.7 96.3372V110.076H129.03V77.9554H136.449V90.4086H136.715C137.259 88.9238 138.148 87.7632 139.382 86.9267C140.626 86.0902 142.147 85.672 143.946 85.672C145.64 85.672 147.114 86.0484 148.369 86.8013C149.623 87.5436 150.596 88.5945 151.286 89.9538C151.987 91.313 152.332 92.9024 152.321 94.7217V110.076H144.652V96.2274C144.662 94.889 144.327 93.8434 143.648 93.0906C142.968 92.3377 142.011 91.9613 140.778 91.9613C139.973 91.9613 139.262 92.1391 138.645 92.4946C138.038 92.8396 137.562 93.3363 137.217 93.9846C136.883 94.6328 136.71 95.417 136.7 96.3372ZM157.109 110.076V85.9857H164.778V110.076H157.109ZM160.951 83.1782C159.874 83.1782 158.949 82.8227 158.175 82.1117C157.401 81.3902 157.015 80.5224 157.015 79.5082C157.015 78.5044 157.401 77.647 158.175 76.936C158.949 76.2145 159.874 75.8538 160.951 75.8538C162.039 75.8538 162.964 76.2145 163.727 76.936C164.501 77.647 164.888 78.5044 164.888 79.5082C164.888 80.5224 164.501 81.3902 163.727 82.1117C162.964 82.8227 162.039 83.1782 160.951 83.1782ZM177.329 77.9554V110.076H169.66V77.9554H177.329ZM189.881 77.9554V110.076H182.211V77.9554H189.881Z" fill="#1C5EAE"/>
<path d="M94.2406 126.306V113.728H102.298V115.638H96.519V119.053H101.745V120.963H96.519V126.306H94.2406ZM104.276 126.306V116.873H106.499V126.306H104.276ZM105.393 115.534C105.041 115.534 104.738 115.417 104.484 115.184C104.23 114.946 104.104 114.662 104.104 114.33C104.104 113.995 104.23 113.71 104.484 113.477C104.738 113.239 105.041 113.12 105.393 113.12C105.749 113.12 106.052 113.239 106.302 113.477C106.556 113.71 106.683 113.995 106.683 114.33C106.683 114.662 106.556 114.946 106.302 115.184C106.052 115.417 105.749 115.534 105.393 115.534ZM111.008 120.779V126.306H108.785V116.873H110.91V118.476H111.02C111.237 117.948 111.583 117.528 112.058 117.217C112.537 116.906 113.129 116.75 113.833 116.75C114.484 116.75 115.051 116.889 115.534 117.168C116.021 117.446 116.398 117.849 116.664 118.377C116.934 118.906 117.067 119.546 117.063 120.3V126.306H114.84V120.644C114.84 120.013 114.676 119.52 114.349 119.164C114.025 118.807 113.577 118.629 113.004 118.629C112.615 118.629 112.269 118.715 111.966 118.887C111.667 119.055 111.432 119.299 111.26 119.618C111.092 119.937 111.008 120.324 111.008 120.779ZM122.038 126.496C121.44 126.496 120.902 126.39 120.423 126.177C119.948 125.96 119.571 125.641 119.293 125.219C119.018 124.797 118.881 124.277 118.881 123.659C118.881 123.127 118.979 122.687 119.176 122.339C119.372 121.991 119.641 121.712 119.98 121.503C120.32 121.295 120.703 121.137 121.129 121.031C121.559 120.92 122.003 120.84 122.462 120.791C123.014 120.734 123.463 120.682 123.806 120.637C124.15 120.588 124.4 120.515 124.556 120.416C124.715 120.314 124.795 120.156 124.795 119.943V119.907C124.795 119.444 124.658 119.086 124.384 118.832C124.109 118.578 123.714 118.451 123.198 118.451C122.654 118.451 122.222 118.57 121.903 118.807C121.587 119.045 121.375 119.325 121.264 119.649L119.188 119.354C119.352 118.781 119.622 118.302 119.999 117.917C120.376 117.528 120.836 117.237 121.381 117.045C121.925 116.848 122.527 116.75 123.186 116.75C123.641 116.75 124.093 116.803 124.543 116.91C124.994 117.016 125.405 117.192 125.778 117.438C126.15 117.679 126.449 118.009 126.674 118.427C126.904 118.844 127.018 119.366 127.018 119.993V126.306H124.881V125.01H124.808C124.672 125.272 124.482 125.518 124.236 125.747C123.995 125.972 123.69 126.154 123.321 126.294C122.957 126.429 122.529 126.496 122.038 126.496ZM122.615 124.863C123.061 124.863 123.448 124.775 123.776 124.599C124.103 124.418 124.355 124.181 124.531 123.886C124.711 123.591 124.801 123.27 124.801 122.922V121.81C124.732 121.868 124.613 121.921 124.445 121.97C124.281 122.019 124.097 122.062 123.892 122.099C123.688 122.136 123.485 122.169 123.284 122.197C123.084 122.226 122.91 122.251 122.762 122.271C122.431 122.316 122.134 122.39 121.872 122.492C121.61 122.594 121.403 122.738 121.252 122.922C121.1 123.102 121.024 123.336 121.024 123.622C121.024 124.032 121.174 124.341 121.473 124.549C121.772 124.758 122.152 124.863 122.615 124.863ZM131.477 120.779V126.306H129.254V116.873H131.379V118.476H131.489C131.706 117.948 132.052 117.528 132.527 117.217C133.006 116.906 133.598 116.75 134.302 116.75C134.953 116.75 135.52 116.889 136.003 117.168C136.49 117.446 136.867 117.849 137.133 118.377C137.403 118.906 137.536 119.546 137.532 120.3V126.306H135.309V120.644C135.309 120.013 135.145 119.52 134.818 119.164C134.494 118.807 134.046 118.629 133.473 118.629C133.084 118.629 132.738 118.715 132.435 118.887C132.136 119.055 131.901 119.299 131.729 119.618C131.561 119.937 131.477 120.324 131.477 120.779ZM143.907 126.49C142.965 126.49 142.157 126.283 141.481 125.87C140.81 125.456 140.292 124.885 139.927 124.156C139.567 123.424 139.387 122.58 139.387 121.626C139.387 120.668 139.571 119.823 139.94 119.09C140.308 118.353 140.828 117.78 141.5 117.37C142.175 116.957 142.974 116.75 143.895 116.75C144.66 116.75 145.338 116.891 145.928 117.174C146.521 117.452 146.994 117.847 147.346 118.359C147.698 118.867 147.899 119.46 147.948 120.14H145.823C145.737 119.686 145.532 119.307 145.209 119.004C144.89 118.697 144.462 118.543 143.925 118.543C143.471 118.543 143.072 118.666 142.728 118.912C142.384 119.153 142.116 119.501 141.923 119.956C141.735 120.41 141.641 120.955 141.641 121.589C141.641 122.232 141.735 122.785 141.923 123.248C142.112 123.706 142.376 124.06 142.716 124.31C143.06 124.556 143.463 124.678 143.925 124.678C144.253 124.678 144.546 124.617 144.804 124.494C145.066 124.367 145.285 124.185 145.461 123.948C145.637 123.71 145.758 123.422 145.823 123.082H147.948C147.895 123.749 147.698 124.341 147.358 124.857C147.019 125.368 146.556 125.77 145.971 126.06C145.385 126.347 144.697 126.49 143.907 126.49ZM153.95 126.49C153.004 126.49 152.187 126.294 151.499 125.901C150.816 125.503 150.289 124.943 149.921 124.218C149.552 123.489 149.368 122.631 149.368 121.645C149.368 120.674 149.552 119.823 149.921 119.09C150.294 118.353 150.814 117.78 151.481 117.37C152.148 116.957 152.932 116.75 153.833 116.75C154.414 116.75 154.963 116.844 155.479 117.032C155.999 117.217 156.457 117.503 156.855 117.892C157.256 118.281 157.571 118.777 157.8 119.378C158.03 119.976 158.144 120.689 158.144 121.516V122.197H150.412V120.699H156.013C156.009 120.273 155.917 119.894 155.737 119.563C155.557 119.227 155.305 118.963 154.981 118.77C154.662 118.578 154.29 118.482 153.864 118.482C153.409 118.482 153.01 118.592 152.666 118.813C152.322 119.03 152.054 119.317 151.862 119.673C151.673 120.025 151.577 120.412 151.573 120.834V122.142C151.573 122.691 151.673 123.162 151.874 123.555C152.075 123.944 152.355 124.242 152.715 124.451C153.076 124.656 153.497 124.758 153.98 124.758C154.304 124.758 154.597 124.713 154.859 124.623C155.121 124.529 155.348 124.392 155.54 124.212C155.733 124.032 155.878 123.808 155.976 123.542L158.052 123.776C157.921 124.324 157.671 124.803 157.303 125.213C156.938 125.618 156.472 125.933 155.903 126.159C155.334 126.38 154.683 126.49 153.95 126.49Z" fill="#1C5EAE"/>
</svg>
