<svg width="381" height="183" viewBox="0 0 381 183" fill="none" xmlns="http://www.w3.org/2000/svg">
<circle cx="91.5" cy="91.5" r="91.5" fill="#4096FF"/>
<circle cx="90" cy="91" r="68" fill="white"/>
<circle cx="90" cy="91" r="66.5" stroke="white" stroke-opacity="0.14" stroke-width="3"/>
<ellipse cx="90" cy="91.5" rx="63" ry="62.5" fill="#4096FF"/>
<path d="M145 91.5C145 121.54 120.436 146 90 146C59.5641 146 35 121.54 35 91.5C35 61.4605 59.5641 37 90 37C120.436 37 145 61.4605 145 91.5Z" stroke="white" stroke-opacity="0.2" stroke-width="16"/>
<ellipse cx="89.5" cy="92" rx="37.5" ry="38" fill="#4096FF"/>
<path d="M125.5 92C125.5 112.177 109.364 128.5 89.5 128.5C69.6364 128.5 53.5 112.177 53.5 92C53.5 71.8228 69.6364 55.5 89.5 55.5C109.364 55.5 125.5 71.8228 125.5 92Z" stroke="white" stroke-opacity="0.2" stroke-width="3"/>
<circle cx="89" cy="92" r="16" fill="white"/>
<circle cx="89" cy="92" r="14.5" stroke="white" stroke-opacity="0.2" stroke-width="3"/>
<path d="M245.832 72.2558H230.233C230.025 70.6544 229.599 69.2089 228.954 67.9194C228.309 66.6299 227.457 65.5275 226.396 64.6124C225.335 63.6973 224.077 63.0005 222.621 62.5222C221.186 62.023 219.595 61.7734 217.848 61.7734C214.749 61.7734 212.076 62.5326 209.83 64.0509C207.605 65.5691 205.889 67.7634 204.682 70.6336C203.497 73.5038 202.904 76.9771 202.904 81.0536C202.904 85.2965 203.507 88.853 204.714 91.7232C205.941 94.5726 207.657 96.7252 209.861 98.1811C212.087 99.6162 214.718 100.334 217.754 100.334C219.46 100.334 221.009 100.115 222.403 99.6786C223.817 99.2418 225.054 98.6075 226.115 97.7755C227.197 96.9228 228.081 95.8933 228.767 94.687C229.474 93.4599 229.963 92.0768 230.233 90.5377L245.832 90.6313C245.562 93.4599 244.74 96.2469 243.367 98.9922C242.016 101.738 240.154 104.244 237.783 106.511C235.412 108.757 232.521 110.546 229.11 111.877C225.72 113.208 221.831 113.874 217.442 113.874C211.66 113.874 206.481 112.605 201.906 110.067C197.351 107.509 193.753 103.786 191.111 98.8987C188.47 94.011 187.149 88.0627 187.149 81.0536C187.149 74.0237 188.491 68.065 191.174 63.1773C193.857 58.2897 197.486 54.5772 202.062 52.0398C206.637 49.5023 211.764 48.2336 217.442 48.2336C221.311 48.2336 224.888 48.7744 228.174 49.8559C231.46 50.9166 234.351 52.4765 236.847 54.5356C239.343 56.5738 241.371 59.08 242.931 62.0542C244.491 65.0284 245.458 68.4289 245.832 72.2558ZM269.925 85.6708V113H254.669V49.1072H269.425V73.8781H269.956C271.037 70.9247 272.805 68.6161 275.259 66.9522C277.734 65.2884 280.76 64.4564 284.338 64.4564C287.707 64.4564 290.64 65.2052 293.136 66.7027C295.631 68.1794 297.566 70.2696 298.938 72.9734C300.332 75.6772 301.018 78.8386 300.997 82.4575V113H285.742V85.4525C285.763 82.7903 285.097 80.7104 283.745 79.2129C282.393 77.7154 280.49 76.9667 278.036 76.9667C276.434 76.9667 275.02 77.3203 273.793 78.0274C272.587 78.7138 271.64 79.7017 270.954 80.9912C270.288 82.2807 269.945 83.8406 269.925 85.6708ZM310.52 113V65.0804H325.776V113H310.52ZM318.164 59.496C316.022 59.496 314.181 58.7889 312.642 57.3746C311.103 55.9395 310.333 54.2132 310.333 52.1957C310.333 50.1991 311.103 48.4936 312.642 47.0793C314.181 45.6442 316.022 44.9267 318.164 44.9267C320.327 44.9267 322.168 45.6442 323.686 47.0793C325.225 48.4936 325.995 50.1991 325.995 52.1957C325.995 54.2132 325.225 55.9395 323.686 57.3746C322.168 58.7889 320.327 59.496 318.164 59.496ZM350.742 49.1072V113H335.486V49.1072H350.742ZM375.708 49.1072V113H360.452V49.1072H375.708Z" fill="#1C5EAE"/>
<path d="M185.468 146V120.982H201.495V124.781H190V131.573H200.395V135.372H190V146H185.468ZM205.428 146V127.236H209.851V146H205.428ZM207.652 124.573C206.951 124.573 206.349 124.341 205.844 123.877C205.339 123.405 205.086 122.839 205.086 122.179C205.086 121.511 205.339 120.945 205.844 120.481C206.349 120.009 206.951 119.772 207.652 119.772C208.36 119.772 208.963 120.009 209.46 120.481C209.965 120.945 210.217 121.511 210.217 122.179C210.217 122.839 209.965 123.405 209.46 123.877C208.963 124.341 208.36 124.573 207.652 124.573ZM218.82 135.006V146H214.398V127.236H218.625V130.425H218.845C219.276 129.374 219.964 128.539 220.909 127.92C221.862 127.302 223.039 126.992 224.439 126.992C225.734 126.992 226.862 127.269 227.823 127.823C228.792 128.377 229.542 129.179 230.071 130.229C230.608 131.28 230.873 132.554 230.865 134.053V146H226.443V134.737C226.443 133.483 226.117 132.501 225.466 131.793C224.822 131.084 223.93 130.73 222.79 130.73C222.017 130.73 221.328 130.901 220.726 131.243C220.131 131.577 219.663 132.062 219.321 132.697C218.987 133.332 218.82 134.102 218.82 135.006ZM240.76 146.379C239.571 146.379 238.5 146.167 237.547 145.743C236.602 145.312 235.853 144.677 235.299 143.838C234.754 142.999 234.481 141.965 234.481 140.735C234.481 139.676 234.676 138.801 235.067 138.109C235.458 137.416 235.992 136.862 236.668 136.447C237.343 136.032 238.105 135.718 238.952 135.507C239.807 135.287 240.691 135.128 241.603 135.03C242.702 134.916 243.594 134.814 244.278 134.725C244.962 134.627 245.459 134.48 245.768 134.285C246.086 134.081 246.245 133.768 246.245 133.344V133.271C246.245 132.351 245.972 131.638 245.426 131.133C244.881 130.628 244.095 130.376 243.069 130.376C241.986 130.376 241.126 130.612 240.491 131.084C239.864 131.557 239.441 132.115 239.221 132.758L235.092 132.172C235.417 131.031 235.955 130.079 236.704 129.313C237.453 128.539 238.37 127.961 239.453 127.578C240.536 127.187 241.733 126.992 243.044 126.992C243.948 126.992 244.848 127.098 245.744 127.31C246.64 127.521 247.458 127.872 248.199 128.36C248.94 128.841 249.535 129.496 249.983 130.327C250.439 131.158 250.667 132.196 250.667 133.442V146H246.416V143.422H246.269C246.001 143.944 245.622 144.432 245.133 144.888C244.653 145.336 244.046 145.699 243.313 145.976C242.588 146.244 241.737 146.379 240.76 146.379ZM241.908 143.129C242.796 143.129 243.565 142.954 244.217 142.604C244.868 142.246 245.369 141.773 245.72 141.187C246.078 140.601 246.257 139.961 246.257 139.269V137.058C246.119 137.172 245.882 137.278 245.549 137.376C245.223 137.473 244.856 137.559 244.449 137.632C244.042 137.705 243.639 137.771 243.24 137.828C242.841 137.885 242.495 137.933 242.201 137.974C241.542 138.064 240.951 138.21 240.43 138.414C239.909 138.618 239.498 138.903 239.196 139.269C238.895 139.627 238.744 140.092 238.744 140.662C238.744 141.476 239.042 142.091 239.636 142.506C240.231 142.922 240.988 143.129 241.908 143.129ZM259.536 135.006V146H255.114V127.236H259.34V130.425H259.56C259.992 129.374 260.68 128.539 261.625 127.92C262.577 127.302 263.754 126.992 265.155 126.992C266.45 126.992 267.578 127.269 268.539 127.823C269.508 128.377 270.257 129.179 270.787 130.229C271.324 131.28 271.589 132.554 271.581 134.053V146H267.158V134.737C267.158 133.483 266.833 132.501 266.181 131.793C265.538 131.084 264.646 130.73 263.506 130.73C262.732 130.73 262.044 130.901 261.441 131.243C260.847 131.577 260.379 132.062 260.037 132.697C259.703 133.332 259.536 134.102 259.536 135.006ZM284.261 146.366C282.388 146.366 280.779 145.955 279.435 145.133C278.1 144.31 277.07 143.174 276.345 141.724C275.628 140.267 275.27 138.589 275.27 136.691C275.27 134.786 275.636 133.104 276.369 131.646C277.102 130.18 278.136 129.04 279.472 128.226C280.816 127.403 282.404 126.992 284.236 126.992C285.759 126.992 287.107 127.273 288.28 127.835C289.461 128.389 290.401 129.175 291.102 130.193C291.802 131.202 292.201 132.383 292.299 133.735H288.072C287.901 132.831 287.494 132.078 286.851 131.475C286.215 130.864 285.364 130.559 284.297 130.559C283.393 130.559 282.599 130.803 281.915 131.292C281.231 131.773 280.698 132.465 280.315 133.369C279.94 134.273 279.753 135.356 279.753 136.618C279.753 137.897 279.94 138.996 280.315 139.916C280.69 140.829 281.215 141.533 281.891 142.03C282.575 142.518 283.377 142.763 284.297 142.763C284.949 142.763 285.531 142.641 286.044 142.396C286.565 142.144 287.001 141.781 287.351 141.309C287.702 140.837 287.942 140.263 288.072 139.587H292.299C292.193 140.914 291.802 142.091 291.126 143.117C290.45 144.135 289.53 144.933 288.365 145.511C287.201 146.081 285.833 146.366 284.261 146.366ZM304.237 146.366C302.356 146.366 300.731 145.976 299.363 145.194C298.003 144.404 296.956 143.288 296.223 141.847C295.49 140.397 295.124 138.691 295.124 136.728C295.124 134.798 295.49 133.104 296.223 131.646C296.964 130.18 297.999 129.04 299.326 128.226C300.653 127.403 302.213 126.992 304.005 126.992C305.161 126.992 306.252 127.179 307.279 127.554C308.313 127.92 309.225 128.491 310.015 129.264C310.813 130.038 311.44 131.023 311.896 132.22C312.352 133.409 312.58 134.827 312.58 136.472V137.828H297.2V134.847H308.341C308.333 134 308.15 133.247 307.792 132.587C307.433 131.919 306.932 131.394 306.289 131.011C305.654 130.628 304.913 130.437 304.066 130.437C303.162 130.437 302.368 130.657 301.684 131.097C301 131.528 300.466 132.098 300.083 132.807C299.709 133.507 299.517 134.277 299.509 135.116V137.718C299.509 138.809 299.709 139.745 300.108 140.527C300.507 141.301 301.065 141.895 301.781 142.311C302.498 142.718 303.337 142.922 304.298 142.922C304.941 142.922 305.524 142.832 306.045 142.653C306.566 142.466 307.018 142.193 307.401 141.834C307.783 141.476 308.073 141.032 308.268 140.503L312.397 140.967C312.136 142.058 311.64 143.011 310.907 143.826C310.182 144.632 309.253 145.259 308.121 145.707C306.989 146.147 305.695 146.366 304.237 146.366Z" fill="#1C5EAE"/>
</svg>
