<svg width="180" height="180" viewBox="0 0 180 180" fill="none" xmlns="http://www.w3.org/2000/svg">
<circle cx="43.394" cy="90.1756" r="43.1756" fill="#4096FF"/>
<circle cx="42.6862" cy="89.9397" r="32.0868" fill="white"/>
<circle cx="42.6862" cy="89.9397" r="31.379" stroke="white" stroke-opacity="0.14" stroke-width="1.41559"/>
<ellipse cx="42.6862" cy="90.1756" rx="29.7274" ry="29.4915" fill="#4096FF"/>
<path d="M68.6387 90.1756C68.6387 104.35 57.0478 115.892 42.6862 115.892C28.3246 115.892 16.7337 104.35 16.7337 90.1756C16.7337 76.001 28.3246 64.459 42.6862 64.459C57.0478 64.459 68.6387 76.001 68.6387 90.1756Z" stroke="white" stroke-opacity="0.2" stroke-width="7.54983"/>
<ellipse cx="42.4502" cy="90.4116" rx="17.6949" ry="17.9308" fill="#4096FF"/>
<path d="M59.4373 90.4116C59.4373 99.9324 51.8231 107.635 42.4502 107.635C33.0773 107.635 25.4631 99.9324 25.4631 90.4116C25.4631 80.8907 33.0773 73.1885 42.4502 73.1885C51.8231 73.1885 59.4373 80.8907 59.4373 90.4116Z" stroke="white" stroke-opacity="0.2" stroke-width="1.41559"/>
<circle cx="42.2143" cy="90.4114" r="7.54983" fill="white"/>
<circle cx="42.2143" cy="90.4114" r="6.84203" stroke="white" stroke-opacity="0.2" stroke-width="1.41559"/>
<path d="M116.218 80.9864H108.857C108.759 80.2308 108.558 79.5487 108.254 78.9402C107.95 78.3318 107.547 77.8116 107.047 77.3798C106.546 76.948 105.952 76.6192 105.265 76.3935C104.588 76.1579 103.837 76.0402 103.013 76.0402C101.551 76.0402 100.29 76.3984 99.2298 77.1148C98.1797 77.8312 97.37 78.8666 96.8008 80.221C96.2414 81.5753 95.9617 83.2142 95.9617 85.1378C95.9617 87.1399 96.2463 88.8181 96.8155 90.1724C97.3945 91.5169 98.2042 92.5327 99.2445 93.2197C100.295 93.8968 101.536 94.2354 102.969 94.2354C103.774 94.2354 104.505 94.1324 105.162 93.9263C105.83 93.7202 106.414 93.4208 106.914 93.0283C107.424 92.6259 107.842 92.1401 108.165 91.5709C108.499 90.9919 108.73 90.3392 108.857 89.613L116.218 89.6572C116.09 90.9919 115.703 92.3069 115.055 93.6024C114.417 94.8979 113.539 96.0804 112.42 97.1502C111.301 98.2101 109.937 99.0541 108.327 99.6822C106.728 100.31 104.892 100.624 102.822 100.624C100.093 100.624 97.6497 100.026 95.4906 98.8284C93.3413 97.6213 91.6435 95.8645 90.3971 93.5582C89.1507 91.2519 88.5275 88.4451 88.5275 85.1378C88.5275 81.8206 89.1605 79.0089 90.4266 76.7026C91.6926 74.3963 93.4051 72.6445 95.5642 71.4472C97.7233 70.2499 100.142 69.6512 102.822 69.6512C104.647 69.6512 106.335 69.9064 107.886 70.4167C109.436 70.9172 110.801 71.6533 111.978 72.6249C113.156 73.5867 114.113 74.7693 114.849 76.1727C115.585 77.5761 116.041 79.1807 116.218 80.9864ZM127.586 87.3165V100.212H120.388V70.0634H127.351V81.7519H127.601C128.111 80.3584 128.945 79.269 130.104 78.4839C131.271 77.6987 132.699 77.3062 134.387 77.3062C135.977 77.3062 137.361 77.6595 138.539 78.3661C139.716 79.0629 140.629 80.0492 141.277 81.325C141.934 82.6009 142.258 84.0926 142.248 85.8002V100.212H135.05V87.2135C135.06 85.9573 134.746 84.9759 134.108 84.2692C133.47 83.5626 132.572 83.2093 131.414 83.2093C130.658 83.2093 129.991 83.3762 129.412 83.7098C128.842 84.0337 128.396 84.4999 128.072 85.1083C127.758 85.7168 127.596 86.4529 127.586 87.3165ZM146.742 100.212V77.6006H153.941V100.212H146.742ZM150.349 74.9655C149.338 74.9655 148.469 74.6319 147.743 73.9645C147.017 73.2873 146.654 72.4728 146.654 71.5208C146.654 70.5787 147.017 69.7739 147.743 69.1066C148.469 68.4294 149.338 68.0908 150.349 68.0908C151.369 68.0908 152.238 68.4294 152.954 69.1066C153.681 69.7739 154.044 70.5787 154.044 71.5208C154.044 72.4728 153.681 73.2873 152.954 73.9645C152.238 74.6319 151.369 74.9655 150.349 74.9655ZM165.721 70.0634V100.212H158.523V70.0634H165.721ZM177.502 70.0634V100.212H170.303V70.0634H177.502Z" fill="#1C5EAE"/>
<path d="M87.734 115.849V104.044H95.2967V105.836H89.8726V109.041H94.7779V110.834H89.8726V115.849H87.734ZM97.1528 115.849V106.995H99.2395V115.849H97.1528ZM98.2019 105.738C97.8714 105.738 97.587 105.629 97.3488 105.41C97.1105 105.187 96.9914 104.92 96.9914 104.608C96.9914 104.293 97.1105 104.026 97.3488 103.807C97.587 103.584 97.8714 103.473 98.2019 103.473C98.5362 103.473 98.8206 103.584 99.055 103.807C99.2933 104.026 99.4124 104.293 99.4124 104.608C99.4124 104.92 99.2933 105.187 99.055 105.41C98.8206 105.629 98.5362 105.738 98.2019 105.738ZM103.472 110.661V115.849H101.385V106.995H103.38V108.499H103.483C103.687 108.004 104.012 107.61 104.458 107.318C104.907 107.026 105.462 106.88 106.123 106.88C106.734 106.88 107.267 107.01 107.72 107.272C108.177 107.533 108.531 107.911 108.781 108.407C109.034 108.903 109.159 109.504 109.155 110.211V115.849H107.069V110.534C107.069 109.942 106.915 109.479 106.608 109.145C106.304 108.811 105.883 108.643 105.345 108.643C104.98 108.643 104.655 108.724 104.371 108.886C104.091 109.043 103.87 109.272 103.708 109.571C103.551 109.871 103.472 110.234 103.472 110.661ZM113.824 116.027C113.263 116.027 112.758 115.928 112.308 115.728C111.863 115.524 111.509 115.224 111.248 114.828C110.99 114.433 110.862 113.945 110.862 113.364C110.862 112.865 110.954 112.452 111.138 112.125C111.323 111.798 111.574 111.537 111.893 111.341C112.212 111.145 112.572 110.997 112.971 110.897C113.375 110.794 113.792 110.719 114.222 110.672C114.741 110.619 115.162 110.571 115.485 110.528C115.807 110.482 116.042 110.413 116.188 110.321C116.338 110.225 116.413 110.077 116.413 109.877V109.842C116.413 109.408 116.284 109.072 116.026 108.834C115.769 108.595 115.398 108.476 114.914 108.476C114.403 108.476 113.997 108.588 113.698 108.811C113.402 109.033 113.202 109.297 113.098 109.6L111.15 109.324C111.304 108.786 111.557 108.336 111.911 107.975C112.264 107.61 112.697 107.337 113.208 107.156C113.719 106.972 114.284 106.88 114.902 106.88C115.329 106.88 115.754 106.93 116.176 107.029C116.599 107.129 116.985 107.295 117.335 107.525C117.685 107.752 117.965 108.061 118.176 108.453C118.392 108.845 118.499 109.335 118.499 109.923V115.849H116.493V114.632H116.424C116.297 114.878 116.119 115.109 115.888 115.324C115.661 115.536 115.375 115.707 115.029 115.837C114.687 115.964 114.286 116.027 113.824 116.027ZM114.366 114.494C114.785 114.494 115.148 114.412 115.456 114.246C115.763 114.077 116 113.854 116.165 113.578C116.334 113.301 116.418 112.999 116.418 112.673V111.629C116.353 111.683 116.242 111.733 116.084 111.779C115.93 111.825 115.757 111.866 115.565 111.9C115.373 111.935 115.183 111.966 114.995 111.992C114.806 112.019 114.643 112.042 114.505 112.062C114.193 112.104 113.915 112.173 113.669 112.269C113.423 112.365 113.229 112.5 113.087 112.673C112.944 112.842 112.873 113.061 112.873 113.33C112.873 113.714 113.014 114.004 113.294 114.2C113.575 114.396 113.932 114.494 114.366 114.494ZM122.684 110.661V115.849H120.597V106.995H122.592V108.499H122.696C122.899 108.004 123.224 107.61 123.67 107.318C124.119 107.026 124.675 106.88 125.336 106.88C125.947 106.88 126.479 107.01 126.932 107.272C127.39 107.533 127.743 107.911 127.993 108.407C128.247 108.903 128.372 109.504 128.368 110.211V115.849H126.281V110.534C126.281 109.942 126.127 109.479 125.82 109.145C125.516 108.811 125.095 108.643 124.558 108.643C124.192 108.643 123.868 108.724 123.583 108.886C123.303 109.043 123.082 109.272 122.92 109.571C122.763 109.871 122.684 110.234 122.684 110.661ZM134.351 116.022C133.467 116.022 132.708 115.828 132.074 115.439C131.444 115.051 130.958 114.515 130.616 113.831C130.278 113.143 130.108 112.352 130.108 111.456C130.108 110.557 130.281 109.764 130.627 109.076C130.973 108.384 131.461 107.846 132.091 107.462C132.725 107.074 133.475 106.88 134.339 106.88C135.058 106.88 135.694 107.012 136.247 107.277C136.805 107.539 137.248 107.909 137.579 108.39C137.909 108.866 138.098 109.424 138.144 110.061H136.149C136.069 109.635 135.877 109.279 135.573 108.995C135.273 108.707 134.872 108.563 134.368 108.563C133.942 108.563 133.567 108.678 133.244 108.909C132.921 109.135 132.67 109.462 132.489 109.889C132.312 110.315 132.224 110.826 132.224 111.422C132.224 112.025 132.312 112.544 132.489 112.978C132.666 113.409 132.914 113.741 133.233 113.975C133.556 114.206 133.934 114.321 134.368 114.321C134.676 114.321 134.95 114.264 135.193 114.148C135.438 114.029 135.644 113.858 135.809 113.635C135.975 113.412 136.088 113.141 136.149 112.823H138.144C138.094 113.449 137.909 114.004 137.59 114.488C137.272 114.969 136.837 115.345 136.288 115.618C135.738 115.887 135.093 116.022 134.351 116.022ZM143.777 116.022C142.889 116.022 142.123 115.837 141.477 115.468C140.835 115.096 140.341 114.569 139.996 113.889C139.65 113.205 139.477 112.4 139.477 111.474C139.477 110.563 139.65 109.764 139.996 109.076C140.345 108.384 140.833 107.846 141.46 107.462C142.086 107.074 142.822 106.88 143.667 106.88C144.213 106.88 144.728 106.968 145.212 107.145C145.7 107.318 146.131 107.587 146.503 107.952C146.88 108.317 147.176 108.782 147.391 109.347C147.606 109.908 147.714 110.576 147.714 111.353V111.992H140.457V110.586H145.714C145.71 110.186 145.623 109.831 145.454 109.52C145.285 109.204 145.049 108.957 144.745 108.776C144.446 108.595 144.096 108.505 143.696 108.505C143.27 108.505 142.895 108.609 142.572 108.816C142.249 109.02 141.998 109.289 141.817 109.623C141.64 109.954 141.55 110.317 141.546 110.713V111.941C141.546 112.456 141.64 112.897 141.829 113.266C142.017 113.631 142.28 113.912 142.618 114.108C142.957 114.3 143.352 114.396 143.806 114.396C144.109 114.396 144.384 114.354 144.63 114.269C144.876 114.181 145.089 114.052 145.27 113.883C145.451 113.714 145.587 113.505 145.679 113.255L147.627 113.474C147.505 113.989 147.27 114.438 146.924 114.823C146.582 115.203 146.144 115.499 145.61 115.71C145.076 115.918 144.465 116.022 143.777 116.022Z" fill="#1C5EAE"/>
</svg>
