<svg width="513" height="513" viewBox="0 0 513 513" fill="none" xmlns="http://www.w3.org/2000/svg">
<circle cx="123.46" cy="257.46" r="122.46" fill="#4096FF"/>
<circle cx="121.453" cy="256.791" r="91.0089" fill="white"/>
<circle cx="121.453" cy="256.791" r="89.0013" stroke="white" stroke-opacity="0.14" stroke-width="4.0151"/>
<ellipse cx="121.453" cy="257.46" rx="84.317" ry="83.6479" fill="#4096FF"/>
<path d="M195.063 257.46C195.063 297.664 162.187 330.401 121.453 330.401C80.7186 330.401 47.8428 297.664 47.8428 257.46C47.8428 217.256 80.7186 184.519 121.453 184.519C162.187 184.519 195.063 217.256 195.063 257.46Z" stroke="white" stroke-opacity="0.2" stroke-width="21.4139"/>
<ellipse cx="120.784" cy="258.13" rx="50.1887" ry="50.8579" fill="#4096FF"/>
<path d="M168.965 258.13C168.965 285.134 147.368 306.98 120.784 306.98C94.199 306.98 72.6025 285.134 72.6025 258.13C72.6025 231.125 94.199 209.279 120.784 209.279C147.368 209.279 168.965 231.125 168.965 258.13Z" stroke="white" stroke-opacity="0.2" stroke-width="4.0151"/>
<circle cx="120.115" cy="258.129" r="21.4139" fill="white"/>
<circle cx="120.115" cy="258.129" r="19.4063" stroke="white" stroke-opacity="0.2" stroke-width="4.0151"/>
<path d="M330.013 231.943H309.136C308.858 229.8 308.287 227.865 307.425 226.14C306.562 224.414 305.42 222.939 304.001 221.714C302.581 220.489 300.897 219.556 298.949 218.916C297.028 218.248 294.898 217.914 292.56 217.914C288.413 217.914 284.836 218.93 281.829 220.962C278.851 222.994 276.555 225.931 274.94 229.772C273.353 233.614 272.56 238.262 272.56 243.718C272.56 249.397 273.367 254.156 274.982 257.998C276.624 261.811 278.921 264.692 281.871 266.641C284.85 268.562 288.371 269.522 292.435 269.522C294.717 269.522 296.791 269.23 298.656 268.645C300.549 268.061 302.205 267.212 303.625 266.098C305.072 264.957 306.255 263.579 307.174 261.964C308.12 260.322 308.775 258.471 309.136 256.411L330.013 256.536C329.652 260.322 328.552 264.052 326.715 267.727C324.906 271.401 322.414 274.755 319.241 277.789C316.068 280.795 312.198 283.189 307.633 284.971C303.096 286.752 297.891 287.643 292.017 287.643C284.279 287.643 277.348 285.945 271.224 282.549C265.128 279.125 260.312 274.143 256.777 267.601C253.242 261.06 251.474 253.099 251.474 243.718C251.474 234.309 253.27 226.334 256.861 219.793C260.451 213.252 265.309 208.283 271.433 204.887C277.557 201.491 284.418 199.793 292.017 199.793C297.195 199.793 301.983 200.517 306.381 201.964C310.779 203.384 314.648 205.471 317.988 208.227C321.329 210.955 324.043 214.309 326.13 218.29C328.218 222.27 329.512 226.822 330.013 231.943ZM362.258 249.898V286.474H341.84V200.962H361.59V234.115H362.3C363.747 230.162 366.113 227.072 369.398 224.845C372.71 222.618 376.76 221.505 381.548 221.505C386.058 221.505 389.982 222.507 393.323 224.511C396.663 226.488 399.252 229.285 401.089 232.904C402.954 236.522 403.873 240.753 403.845 245.597V286.474H383.427V249.605C383.455 246.042 382.564 243.259 380.755 241.255C378.945 239.25 376.398 238.248 373.114 238.248C370.97 238.248 369.078 238.721 367.435 239.668C365.821 240.586 364.554 241.909 363.636 243.635C362.745 245.36 362.286 247.448 362.258 249.898ZM416.59 286.474V222.34H437.008V286.474H416.59ZM426.82 214.866C423.953 214.866 421.489 213.92 419.429 212.027C417.369 210.106 416.34 207.796 416.34 205.096C416.34 202.423 417.369 200.141 419.429 198.248C421.489 196.327 423.953 195.367 426.82 195.367C429.715 195.367 432.178 196.327 434.21 198.248C436.27 200.141 437.3 202.423 437.3 205.096C437.3 207.796 436.27 210.106 434.21 212.027C432.178 213.92 429.715 214.866 426.82 214.866ZM470.421 200.962V286.474H450.004V200.962H470.421ZM503.835 200.962V286.474H483.417V200.962H503.835Z" fill="#1C5EAE"/>
<path d="M249.224 329.897V296.413H270.674V301.498H255.289V310.588H269.203V315.673H255.289V329.897H249.224ZM275.939 329.897V304.784H281.857V329.897H275.939ZM278.914 301.22C277.977 301.22 277.17 300.909 276.494 300.288C275.819 299.656 275.481 298.898 275.481 298.015C275.481 297.122 275.819 296.364 276.494 295.743C277.17 295.111 277.977 294.795 278.914 294.795C279.862 294.795 280.669 295.111 281.334 295.743C282.01 296.364 282.347 297.122 282.347 298.015C282.347 298.898 282.01 299.656 281.334 300.288C280.669 300.909 279.862 301.22 278.914 301.22ZM293.861 315.182V329.897H287.943V304.784H293.6V309.051H293.894C294.472 307.645 295.393 306.528 296.657 305.7C297.932 304.871 299.507 304.457 301.382 304.457C303.115 304.457 304.625 304.828 305.911 305.569C307.208 306.31 308.211 307.384 308.919 308.79C309.639 310.196 309.993 311.902 309.982 313.907V329.897H304.063V314.823C304.063 313.144 303.628 311.831 302.756 310.882C301.894 309.934 300.701 309.46 299.175 309.46C298.14 309.46 297.219 309.689 296.412 310.147C295.616 310.594 294.99 311.242 294.532 312.092C294.085 312.942 293.861 313.972 293.861 315.182ZM323.225 330.404C321.634 330.404 320.2 330.12 318.925 329.553C317.661 328.976 316.658 328.126 315.917 327.003C315.186 325.88 314.821 324.496 314.821 322.85C314.821 321.433 315.083 320.262 315.606 319.335C316.129 318.409 316.843 317.667 317.748 317.112C318.653 316.556 319.672 316.136 320.805 315.853C321.95 315.558 323.132 315.346 324.353 315.215C325.824 315.062 327.018 314.926 327.934 314.806C328.849 314.675 329.514 314.479 329.928 314.218C330.353 313.945 330.566 313.526 330.566 312.959V312.861C330.566 311.629 330.201 310.675 329.47 310C328.74 309.324 327.688 308.986 326.315 308.986C324.865 308.986 323.715 309.302 322.865 309.934C322.026 310.566 321.459 311.313 321.165 312.174L315.639 311.389C316.075 309.863 316.794 308.588 317.797 307.564C318.8 306.528 320.026 305.754 321.476 305.242C322.925 304.719 324.527 304.457 326.282 304.457C327.492 304.457 328.697 304.599 329.895 304.882C331.094 305.166 332.19 305.634 333.182 306.288C334.174 306.931 334.969 307.809 335.569 308.921C336.179 310.032 336.484 311.422 336.484 313.09V329.897H330.795V326.447H330.598C330.239 327.145 329.732 327.799 329.078 328.409C328.435 329.008 327.623 329.493 326.642 329.864C325.672 330.224 324.533 330.404 323.225 330.404ZM324.762 326.055C325.95 326.055 326.98 325.82 327.852 325.352C328.724 324.872 329.394 324.24 329.863 323.455C330.342 322.67 330.582 321.815 330.582 320.888V317.929C330.397 318.082 330.081 318.223 329.634 318.354C329.198 318.485 328.707 318.599 328.162 318.697C327.617 318.796 327.078 318.883 326.544 318.959C326.01 319.035 325.547 319.101 325.154 319.155C324.271 319.275 323.481 319.471 322.783 319.744C322.086 320.016 321.535 320.398 321.132 320.888C320.729 321.368 320.527 321.989 320.527 322.752C320.527 323.842 320.925 324.665 321.721 325.221C322.516 325.777 323.53 326.055 324.762 326.055ZM348.354 315.182V329.897H342.435V304.784H348.092V309.051H348.387C348.964 307.645 349.885 306.528 351.15 305.7C352.425 304.871 354 304.457 355.875 304.457C357.608 304.457 359.117 304.828 360.403 305.569C361.7 306.31 362.703 307.384 363.412 308.79C364.131 310.196 364.485 311.902 364.474 313.907V329.897H358.556V314.823C358.556 313.144 358.12 311.831 357.248 310.882C356.387 309.934 355.193 309.46 353.667 309.46C352.632 309.46 351.711 309.689 350.904 310.147C350.109 310.594 349.482 311.242 349.024 312.092C348.577 312.942 348.354 313.972 348.354 315.182ZM381.445 330.387C378.938 330.387 376.785 329.837 374.987 328.736C373.199 327.635 371.821 326.115 370.851 324.174C369.891 322.223 369.412 319.978 369.412 317.439C369.412 314.888 369.902 312.637 370.883 310.686C371.864 308.724 373.249 307.198 375.036 306.108C376.834 305.008 378.96 304.457 381.412 304.457C383.451 304.457 385.254 304.833 386.824 305.585C388.404 306.326 389.663 307.378 390.601 308.741C391.538 310.092 392.072 311.673 392.203 313.482H386.546C386.317 312.272 385.772 311.264 384.911 310.457C384.061 309.64 382.922 309.231 381.494 309.231C380.284 309.231 379.221 309.558 378.306 310.212C377.39 310.855 376.676 311.782 376.164 312.991C375.663 314.201 375.412 315.651 375.412 317.34C375.412 319.052 375.663 320.523 376.164 321.755C376.666 322.976 377.369 323.918 378.273 324.583C379.189 325.237 380.262 325.564 381.494 325.564C382.366 325.564 383.145 325.401 383.832 325.074C384.53 324.736 385.113 324.251 385.581 323.619C386.05 322.986 386.372 322.218 386.546 321.313H392.203C392.061 323.09 391.538 324.665 390.633 326.038C389.729 327.401 388.497 328.469 386.938 329.243C385.38 330.006 383.549 330.387 381.445 330.387ZM408.18 330.387C405.662 330.387 403.488 329.864 401.657 328.818C399.837 327.76 398.436 326.267 397.455 324.338C396.474 322.398 395.984 320.114 395.984 317.488C395.984 314.904 396.474 312.637 397.455 310.686C398.447 308.724 399.831 307.198 401.608 306.108C403.384 305.008 405.472 304.457 407.87 304.457C409.417 304.457 410.878 304.708 412.251 305.209C413.636 305.7 414.856 306.463 415.914 307.498C416.982 308.534 417.821 309.852 418.431 311.455C419.042 313.046 419.347 314.943 419.347 317.144V318.959H398.763V314.97H413.674C413.663 313.836 413.418 312.828 412.938 311.945C412.458 311.051 411.788 310.348 410.927 309.836C410.077 309.324 409.085 309.068 407.951 309.068C406.742 309.068 405.679 309.362 404.763 309.951C403.848 310.528 403.134 311.291 402.622 312.239C402.12 313.177 401.864 314.207 401.853 315.329V318.812C401.853 320.272 402.12 321.526 402.654 322.572C403.188 323.608 403.935 324.403 404.894 324.959C405.853 325.504 406.976 325.777 408.262 325.777C409.123 325.777 409.902 325.657 410.6 325.417C411.298 325.166 411.902 324.801 412.415 324.322C412.927 323.842 413.314 323.248 413.576 322.54L419.102 323.161C418.753 324.621 418.088 325.897 417.107 326.987C416.137 328.066 414.894 328.905 413.379 329.504C411.864 330.093 410.131 330.387 408.18 330.387Z" fill="#1C5EAE"/>
</svg>
